<svg width="448" height="82" viewBox="0 0 448 82" fill="none" xmlns="http://www.w3.org/2000/svg">
<rect x="1" y="1" width="446" height="80" rx="29" fill="#94FF6F" stroke="#00ABA0" stroke-width="2"/>
<path d="M92.9189 51H93.4949L95.8949 42.744L100.935 23.592L106.743 24.456L101.031 43.512L97.2869 56.616L88.4069 57.24L84.9989 44.424L79.4309 24.792L86.2469 23.592L90.6149 42.12L92.9189 51ZM116.661 32.568L116.085 44.52L116.613 55.8L110.181 57L110.757 45.336L110.229 33.768L116.661 32.568ZM109.893 25.56C109.893 24.472 110.309 23.512 111.141 22.68C111.973 21.816 112.933 21.384 114.021 21.384C115.109 21.384 115.941 21.688 116.517 22.296C117.093 22.872 117.381 23.752 117.381 24.936C117.381 26.12 116.965 27.144 116.133 28.008C115.333 28.84 114.389 29.256 113.301 29.256C112.245 29.256 111.413 28.904 110.805 28.2C110.197 27.496 109.893 26.616 109.893 25.56ZM130.588 52.104C131.516 52.104 132.492 51.864 133.516 51.384C134.54 50.904 135.34 50.424 135.916 49.944L136.78 49.224L138.988 51.912C138.668 52.456 138.172 53.08 137.5 53.784C136.828 54.488 136.14 55.096 135.436 55.608C134.764 56.088 133.852 56.536 132.7 56.952C131.58 57.336 130.412 57.528 129.196 57.528C126.604 57.528 124.492 56.552 122.86 54.6C121.228 52.616 120.412 50.072 120.412 46.968C120.412 43.064 121.548 39.64 123.82 36.696C126.092 33.752 128.748 32.28 131.788 32.28C134.124 32.28 135.932 32.936 137.212 34.248C138.524 35.56 139.18 37.4 139.18 39.768C139.18 41.176 138.94 42.776 138.46 44.568L137.5 45.576L125.5 46.68C126.044 50.296 127.74 52.104 130.588 52.104ZM130.588 37.224C129.18 37.224 127.996 37.8 127.036 38.952C126.076 40.072 125.516 41.512 125.356 43.272L133.516 42.264C133.612 41.528 133.66 40.92 133.66 40.44C133.66 38.296 132.636 37.224 130.588 37.224ZM164.778 51H165.402L166.938 44.424L169.434 32.568L175.29 33.288L171.786 45.192L168.858 56.424L160.986 57.144L158.346 45.48L158.106 44.712L154.89 56.424L147.258 57.144L144.474 45.48L141.162 33.816L147.45 32.616L149.418 43.176L151.146 51H151.77L155.898 37.32L154.89 33.816L161.082 32.616L163.098 43.176L164.778 51ZM184.446 46.968C184.446 42.872 185.55 39.4 187.758 36.552C189.966 33.704 192.542 32.28 195.486 32.28C198.462 32.28 200.766 33.24 202.398 35.16C204.062 37.08 204.894 39.624 204.894 42.792C204.894 47.016 203.822 50.536 201.678 53.352C199.566 56.136 196.894 57.528 193.662 57.528C191.006 57.528 188.798 56.536 187.038 54.552C185.31 52.536 184.446 50.008 184.446 46.968ZM199.518 45.288C199.518 40.648 197.934 38.328 194.766 38.328C191.47 38.328 189.822 40.504 189.822 44.856C189.822 47.128 190.286 48.904 191.214 50.184C192.142 51.464 193.358 52.104 194.862 52.104C196.398 52.104 197.55 51.528 198.318 50.376C199.118 49.192 199.518 47.496 199.518 45.288ZM214.802 57C213.074 57 211.666 56.44 210.578 55.32C209.522 54.168 208.994 52.664 208.994 50.808L209.282 45.288L208.754 33.768L215.186 32.568L214.562 47.16C214.562 48.536 214.802 49.544 215.282 50.184C215.794 50.824 216.594 51.144 217.682 51.144C218.77 51.144 220.274 50.6 222.194 49.512V46.632L221.666 34.008L228.146 32.808L227.57 44.808L227.618 48.744C227.618 50.792 228.146 52.856 229.202 54.936L224.21 57.144C223.154 55.064 222.514 53.4 222.29 52.152C219.41 55.384 216.914 57 214.802 57ZM232.983 33.816L238.791 32.568C239.079 35.032 239.271 37.368 239.367 39.576C242.279 35.064 245.015 32.808 247.575 32.808L247.047 40.296C245.191 40.296 243.719 40.472 242.631 40.824C241.575 41.144 240.487 41.8 239.367 42.792V44.52L239.895 55.8L233.463 57L234.039 45.336C233.911 41.048 233.559 37.208 232.983 33.816ZM259.898 33.768V28.536L266.378 27.288L265.754 33.768H271.562L271.034 37.704H265.562L265.322 47.736C265.322 49.24 265.466 50.248 265.754 50.76C266.042 51.24 266.57 51.48 267.338 51.48C268.106 51.48 269.13 51.304 270.41 50.952L270.698 54.36C268.586 56.12 266.73 57 265.13 57C263.53 57 262.218 56.424 261.194 55.272C260.17 54.088 259.658 52.552 259.658 50.664L259.946 45.288L259.898 37.704H256.586L257.114 33.768H259.898ZM274.561 33.816L280.369 32.568C280.657 35.032 280.849 37.368 280.945 39.576C283.857 35.064 286.593 32.808 289.153 32.808L288.625 40.296C286.769 40.296 285.297 40.472 284.209 40.824C283.153 41.144 282.065 41.8 280.945 42.792V44.52L281.473 55.8L275.041 57L275.617 45.336C275.489 41.048 275.137 37.208 274.561 33.816ZM300.838 52.104C301.766 52.104 302.742 51.864 303.766 51.384C304.79 50.904 305.59 50.424 306.166 49.944L307.03 49.224L309.238 51.912C308.918 52.456 308.422 53.08 307.75 53.784C307.078 54.488 306.39 55.096 305.686 55.608C305.014 56.088 304.102 56.536 302.95 56.952C301.83 57.336 300.662 57.528 299.446 57.528C296.854 57.528 294.742 56.552 293.11 54.6C291.478 52.616 290.662 50.072 290.662 46.968C290.662 43.064 291.798 39.64 294.07 36.696C296.342 33.752 298.998 32.28 302.038 32.28C304.374 32.28 306.182 32.936 307.462 34.248C308.774 35.56 309.43 37.4 309.43 39.768C309.43 41.176 309.19 42.776 308.71 44.568L307.75 45.576L295.75 46.68C296.294 50.296 297.99 52.104 300.838 52.104ZM300.838 37.224C299.43 37.224 298.246 37.8 297.286 38.952C296.326 40.072 295.766 41.512 295.606 43.272L303.766 42.264C303.862 41.528 303.91 40.92 303.91 40.44C303.91 38.296 302.886 37.224 300.838 37.224ZM318.42 57C316.532 57 314.98 56.408 313.764 55.224C312.58 54.008 311.988 52.392 311.988 50.376C311.988 48.328 312.916 46.568 314.772 45.096C316.628 43.592 318.884 42.84 321.54 42.84H324.804V42.024C324.804 40.456 324.484 39.384 323.844 38.808C323.204 38.232 322.004 37.944 320.244 37.944C319.508 37.944 318.628 38.104 317.604 38.424C316.612 38.712 315.492 39.176 314.244 39.816L312.852 36.024C314.228 35.064 315.892 34.2 317.844 33.432C319.828 32.664 321.46 32.28 322.74 32.28C327.764 32.28 330.276 34.712 330.276 39.576V48.984C330.276 50.776 330.836 52.776 331.956 54.984L326.868 57.144C326.068 55.608 325.476 54.232 325.092 53.016C323.332 55.672 321.108 57 318.42 57ZM320.436 52.104C321.716 52.104 323.172 51.448 324.804 50.136V46.92C323.108 46.536 321.732 46.344 320.676 46.344C318.66 46.344 317.652 47.24 317.652 49.032C317.652 49.96 317.908 50.712 318.42 51.288C318.932 51.832 319.604 52.104 320.436 52.104ZM337.992 33.768V28.536L344.472 27.288L343.848 33.768H349.656L349.128 37.704H343.656L343.416 47.736C343.416 49.24 343.56 50.248 343.848 50.76C344.136 51.24 344.664 51.48 345.432 51.48C346.2 51.48 347.224 51.304 348.504 50.952L348.792 54.36C346.68 56.12 344.824 57 343.224 57C341.624 57 340.312 56.424 339.288 55.272C338.264 54.088 337.752 52.552 337.752 50.664L338.04 45.288L337.992 37.704H334.68L335.208 33.768H337.992ZM360.43 52.536C362.094 52.536 362.926 51.8 362.926 50.328C362.926 49.816 362.558 49.336 361.822 48.888C361.118 48.44 360.238 47.992 359.182 47.544C358.158 47.096 357.118 46.6 356.062 46.056C355.038 45.48 354.158 44.696 353.422 43.704C352.718 42.712 352.366 41.576 352.366 40.296C352.366 38.152 353.31 36.28 355.198 34.68C357.086 33.08 359.262 32.28 361.726 32.28C362.878 32.28 363.998 32.424 365.086 32.712C366.206 32.968 367.278 33.384 368.302 33.96L365.086 39.816C364.862 39.624 364.574 39.384 364.222 39.096C363.87 38.808 363.198 38.44 362.206 37.992C361.246 37.512 360.382 37.272 359.614 37.272C358.878 37.272 358.302 37.448 357.886 37.8C357.502 38.12 357.31 38.584 357.31 39.192C357.31 39.768 357.854 40.36 358.942 40.968C360.062 41.544 361.278 42.088 362.59 42.6C363.902 43.08 365.102 43.896 366.19 45.048C367.31 46.168 367.87 47.512 367.87 49.08C367.87 51.32 366.942 53.288 365.086 54.984C363.262 56.68 361.15 57.528 358.75 57.528C357.214 57.528 355.774 57.192 354.43 56.52C353.118 55.848 352.174 55.176 351.598 54.504L350.734 53.496L354.526 49.08C354.718 49.336 354.99 49.656 355.342 50.04C355.694 50.424 356.382 50.936 357.406 51.576C358.462 52.216 359.47 52.536 360.43 52.536Z" fill="black"/>
</svg>
